<svg width="24" height="25" viewBox="0 0 24 25" fill="none" xmlns="http://www.w3.org/2000/svg">
<g clip-path="url(#clip0_266_1223)">
<path d="M23.8594 6.84219C23.5172 5.24375 22.6828 3.94063 21.3656 2.97032C19.9406 1.92032 18.3422 1.49844 16.5797 1.75157C15.3187 1.93438 14.2406 2.52032 13.2516 3.28907C12.8156 3.62657 12.4078 4.00157 11.9766 4.36719C11.9578 4.35313 10.9687 3.45782 10.4578 3.08282C9.39375 2.29532 8.21719 1.75625 6.87656 1.68594C5.29218 1.60625 3.84375 2.0375 2.57812 3.0125C0.881248 4.31563 0.0140602 6.06407 -2.25614e-06 8.19688C-0.0140648 10.2594 0.585935 12.1766 1.56562 13.9766C2.45625 15.6172 3.59531 17.075 4.91719 18.3922C6.70312 20.1875 8.71875 21.6781 10.875 22.9906C11.6484 23.4641 12.4453 23.4125 13.2141 22.9391C14.4422 22.1844 15.6281 21.3594 16.7578 20.4641C18.6797 18.9313 20.4 17.2063 21.7453 15.1344C22.7531 13.5734 23.5031 11.9047 23.8266 10.0625C24.0141 8.98907 24.0844 7.91094 23.8594 6.84219ZM18.3891 10.2266L11.4609 17.1547C10.7297 17.8906 9.53906 17.8906 8.80312 17.1547L5.61094 13.9625C4.875 13.2266 4.875 12.0406 5.61094 11.3047C6.34687 10.5688 7.53281 10.5688 8.26875 11.3047L10.1344 13.1703L15.7312 7.57344C16.4672 6.8375 17.6531 6.8375 18.3891 7.57344C19.125 8.30469 19.125 9.49063 18.3891 10.2266Z" fill="#2DB155"/>
</g>
<defs>
<clipPath id="clip0_266_1223">
<rect width="24" height="24" fill="white" transform="translate(0 0.5)"/>
</clipPath>
</defs>
</svg>
