<svg width="32" height="32" viewBox="0 0 32 32" fill="none" xmlns="http://www.w3.org/2000/svg">
<path d="M31.5034 12.2824C31.2107 11.3813 30.4463 10.7369 29.5087 10.6007L21.7055 9.4668L18.2159 2.39593C17.7965 1.5463 16.9475 1.01855 16 1.01855C15.0525 1.01855 14.2035 1.5463 13.7842 2.39593L10.2945 9.4668L2.49141 10.6007C1.55378 10.7369 0.789408 11.3813 0.496658 12.2824C0.203908 13.1836 0.443533 14.1542 1.12191 14.8154L6.76828 20.3193L5.43528 28.0909C5.31178 28.8108 5.51003 29.5428 5.97928 30.0993C6.45166 30.6596 7.14103 30.9809 7.87066 30.9809C8.26816 30.9809 8.66578 30.8823 9.02053 30.6958L16 27.0267L22.9794 30.6959C23.3343 30.8824 23.7319 30.9811 24.1294 30.9811C24.859 30.9811 25.5484 30.6597 26.0208 30.0994C26.4899 29.5429 26.6883 28.8109 26.5648 28.0911L25.2318 20.3194L30.8782 14.8156C31.5567 14.1542 31.7963 13.1836 31.5034 12.2824Z" fill="#FFC91D"/>
<path d="M16.5345 3.2258L20.4604 11.1806L29.239 12.4562C29.7279 12.5272 29.9231 13.1279 29.5694 13.4728L23.2171 19.6648L24.7168 28.4079C24.8003 28.8948 24.2893 29.2662 23.852 29.0363L16 24.9083L8.14813 29.0363C7.71088 29.2662 7.19988 28.8949 7.28338 28.4079L8.783 19.6648L2.43075 13.4728C2.077 13.1279 2.27225 12.5272 2.76113 12.4562L11.5398 11.1806L15.4656 3.2258C15.6841 2.7828 16.3159 2.7828 16.5345 3.2258Z" fill="#FFA91A"/>
<path d="M12.4287 11.3235C12.3916 11.3235 12.3538 11.3152 12.3182 11.2976C12.1945 11.2365 12.1436 11.0866 12.2047 10.9627L14.3622 6.59112C14.4232 6.46737 14.5731 6.4165 14.6971 6.47762C14.8208 6.53875 14.8717 6.68862 14.8106 6.8125L12.6531 11.1841C12.6096 11.2722 12.521 11.3235 12.4287 11.3235ZM15.0288 6.05512C14.9917 6.05512 14.954 6.04687 14.9183 6.02925C14.7946 5.96812 14.7437 5.81825 14.8048 5.69437L14.8211 5.66137C14.8821 5.5375 15.0321 5.48675 15.156 5.54787C15.2797 5.609 15.3306 5.75887 15.2695 5.88275L15.2532 5.91575C15.2097 6.004 15.121 6.05512 15.0288 6.05512Z" fill="#FFC91D"/>
<path d="M29.239 12.4563L23.8508 11.6733L18.6877 16.7062C18.393 16.9933 18.2587 17.4071 18.3282 17.8126L19.7167 25.9081C19.7773 26.2612 19.5247 26.5523 19.2148 26.5985L23.8519 29.0363C24.2892 29.2662 24.8002 28.895 24.7167 28.408L23.217 19.6648L29.5693 13.4728C29.9232 13.1282 29.7279 12.5273 29.239 12.4563Z" fill="#F79219"/>
<path d="M29.239 12.4564L27.1328 12.1504C27.1139 12.1755 27.093 12.2 27.0694 12.2231L20.7172 18.4151L22.2168 27.1583C22.2844 27.5523 21.9625 27.8703 21.6057 27.8556L23.852 29.0366C24.2893 29.2665 24.8003 28.8953 24.7168 28.4083L23.2172 19.6651L29.5694 13.4731C29.9232 13.1283 29.7279 12.5274 29.239 12.4564Z" fill="#EF7816"/>
</svg>
