<svg width="65" height="64" viewBox="0 0 65 64" fill="none" xmlns="http://www.w3.org/2000/svg">
<path d="M5.04343 23.25H59.9562C61.0841 23.25 62.114 23.66 62.8951 24.3326C58.889 11.833 46.7964 2.75 32.4998 2.75C18.2033 2.75 6.11066 11.833 2.10449 24.3326C2.8856 23.66 3.91558 23.25 5.04343 23.25Z" fill="#01D0FB"/>
<path d="M48.3537 13.25H42.1209C40.7007 17.0319 36.9246 19.7434 32.4996 19.7434C28.0747 19.7434 24.2985 17.0319 22.8783 13.25H16.6455C13.2132 13.25 10.4307 15.9292 10.4307 19.2342V23.25H54.5686V19.2342C54.5686 15.9292 51.7861 13.25 48.3537 13.25Z" fill="#FD4755"/>
<path d="M48.3538 13.25H42.2604C42.235 13.319 42.2086 13.3875 42.1816 13.4558C44.8298 14.1413 46.7796 16.468 46.7796 19.2342V23.25H54.5687V19.2342C54.5687 15.9292 51.7862 13.25 48.3538 13.25Z" fill="#FB2B3A"/>
<path d="M8.875 53.875C14.6961 60.0909 23.1232 64 32.5001 64C41.8769 64 50.304 60.0909 56.1252 53.875H8.875Z" fill="#FB2B3A"/>
<path d="M20.8162 59.3268C21.9853 59.3268 22.9331 58.4141 22.9331 57.2884C22.9331 56.1626 21.9853 55.25 20.8162 55.25C19.647 55.25 18.6992 56.1626 18.6992 57.2884C18.6992 58.4141 19.647 59.3268 20.8162 59.3268Z" fill="white"/>
<path d="M20.8165 55.25C20.5656 55.25 20.326 55.2943 20.1025 55.3714C20.9199 55.6538 21.5055 56.4043 21.5055 57.2884C21.5055 58.1725 20.9197 58.923 20.1025 59.2054C20.326 59.2825 20.5656 59.3268 20.8165 59.3268C21.9857 59.3268 22.9335 58.4141 22.9335 57.2884C22.9335 56.1626 21.9857 55.25 20.8165 55.25Z" fill="#F9F7F8"/>
<path d="M28.6055 59.3268C29.7746 59.3268 30.7224 58.4141 30.7224 57.2884C30.7224 56.1626 29.7746 55.25 28.6055 55.25C27.4363 55.25 26.4885 56.1626 26.4885 57.2884C26.4885 58.4141 27.4363 59.3268 28.6055 59.3268Z" fill="white"/>
<path d="M28.6058 55.25C28.3549 55.25 28.1153 55.2943 27.8918 55.3714C28.7092 55.6538 29.2948 56.4043 29.2948 57.2884C29.2948 58.1725 28.709 58.923 27.8918 59.2054C28.1153 59.2825 28.3549 59.3268 28.6058 59.3268C29.775 59.3268 30.7228 58.4141 30.7228 57.2884C30.7228 56.1626 29.775 55.25 28.6058 55.25Z" fill="#F9F7F8"/>
<path d="M36.3943 59.3268C37.5634 59.3268 38.5112 58.4141 38.5112 57.2884C38.5112 56.1626 37.5634 55.25 36.3943 55.25C35.2251 55.25 34.2773 56.1626 34.2773 57.2884C34.2773 58.4141 35.2251 59.3268 36.3943 59.3268Z" fill="white"/>
<path d="M36.3947 55.25C36.1437 55.25 35.9041 55.2943 35.6807 55.3714C36.498 55.6538 37.0836 56.4043 37.0836 57.2884C37.0836 58.1725 36.4979 58.923 35.6807 59.2054C35.9041 59.2825 36.1437 59.3268 36.3947 59.3268C37.5638 59.3268 38.5116 58.4141 38.5116 57.2884C38.5116 56.1626 37.5638 55.25 36.3947 55.25Z" fill="#F9F7F8"/>
<path d="M44.1833 59.3268C45.3525 59.3268 46.3003 58.4141 46.3003 57.2884C46.3003 56.1626 45.3525 55.25 44.1833 55.25C43.0142 55.25 42.0664 56.1626 42.0664 57.2884C42.0664 58.4141 43.0142 59.3268 44.1833 59.3268Z" fill="white"/>
<path d="M44.1837 55.25C43.9328 55.25 43.6931 55.2943 43.4697 55.3714C44.2871 55.6538 44.8727 56.4043 44.8727 57.2884C44.8727 58.1725 44.2869 58.923 43.4697 59.2054C43.6931 59.2825 43.9328 59.3268 44.1837 59.3268C45.3529 59.3268 46.3007 58.4141 46.3007 57.2884C46.3007 56.1626 45.3529 55.25 44.1837 55.25Z" fill="#F9F7F8"/>
<path d="M59.9564 54H5.04361C2.53424 54 0.5 52.0413 0.5 49.625V27.5C0.5 25.0838 2.53424 23.125 5.04361 23.125H59.9564C62.4658 23.125 64.5 25.0838 64.5 27.5V49.625C64.5 52.0413 62.4658 54 59.9564 54Z" fill="#FE646F"/>
<path d="M59.9563 23.125H50.8042C53.3136 23.125 55.3478 25.0838 55.3478 27.5V27.7731H55.6391C57.8084 27.7731 59.5669 29.4664 59.5669 31.5551V45.5698C59.5669 47.6585 57.8084 49.3517 55.6391 49.3517H55.3478V49.625C55.3478 52.0413 53.3136 54 50.8042 54H59.9563C62.4657 54 64.4999 52.0413 64.4999 49.625V27.5C64.4999 25.0838 62.4657 23.125 59.9563 23.125Z" fill="#FD4755"/>
<path d="M55.6387 27.7731H45.4496C43.2804 27.7731 41.5219 29.4664 41.5219 31.5551C41.5219 29.4664 39.7634 27.7731 37.5941 27.7731H27.405C25.2357 27.7731 23.4772 29.4664 23.4772 31.5551C23.4772 29.4664 21.7187 27.7731 19.5495 27.7731H9.36037C7.19112 27.7731 5.43262 29.4664 5.43262 31.5551V45.5698C5.43262 47.6585 7.19112 49.3518 9.36037 49.3518H19.5495C21.7187 49.3518 23.4772 47.6585 23.4772 45.5698C23.4772 47.6585 25.2357 49.3518 27.405 49.3518H37.5941C39.7634 49.3518 41.5219 47.6585 41.5219 45.5698C41.5219 47.6585 43.2804 49.3518 45.4496 49.3518H55.6387C57.808 49.3518 59.5665 47.6585 59.5665 45.5698V31.5551C59.5665 29.4665 57.808 27.7731 55.6387 27.7731Z" fill="#FEE97D"/>
<path d="M37.5945 27.7731H32.3369C34.2794 27.7731 35.8914 29.1311 36.2074 30.9148H37.5264C37.6091 30.9148 37.6862 30.9549 37.7313 31.0215L39.5056 33.6346C39.5529 33.7044 39.5585 33.7929 39.5204 33.8678L36.2647 40.2461V45.5698C36.2647 47.6585 34.5062 49.3518 32.3369 49.3518H37.5945C39.7638 49.3518 41.5223 47.6585 41.5223 45.5698V31.5551C41.5223 29.4665 39.7638 27.7731 37.5945 27.7731Z" fill="#FEDF30"/>
<path d="M19.5498 27.7731H14.2922C16.2347 27.7731 17.8468 29.1311 18.1627 30.9148H19.4817C19.5644 30.9148 19.6415 30.9549 19.6867 31.0215L21.4609 33.6346C21.5083 33.7044 21.5138 33.7929 21.4757 33.8678L18.22 40.2461V45.5698C18.22 47.6585 16.4615 49.3518 14.2922 49.3518H19.5498C21.7191 49.3518 23.4776 47.6585 23.4776 45.5698V31.5551C23.4776 29.4665 21.7191 27.7731 19.5498 27.7731Z" fill="#FEDF30"/>
<path d="M19.4819 30.9151H11.4012C11.2659 30.9151 11.1562 30.8095 11.1562 30.6792C11.1562 30.549 11.0465 30.4434 10.9112 30.4434H8.53208C8.39681 30.4434 8.28711 30.549 8.28711 30.6792V36.8109C8.28711 36.9411 8.39681 37.0467 8.53208 37.0467H10.7182C10.8145 37.0467 10.9018 36.9925 10.9414 36.908L11.7909 35.0967C11.8305 35.0122 11.9178 34.958 12.014 34.958H16.0077C16.1896 34.958 16.308 35.142 16.227 35.2987L10.5271 46.3412C10.4462 46.498 10.5646 46.682 10.7464 46.682H14.7823C14.8756 46.682 14.9609 46.6309 15.002 46.5502L21.4755 33.868C21.5137 33.7932 21.5081 33.7046 21.4607 33.6349L19.6865 31.0217C19.6416 30.9552 19.5646 30.9151 19.4819 30.9151Z" fill="#FE646F"/>
<path d="M37.527 30.9149H29.4462C29.311 30.9149 29.2013 30.8092 29.2013 30.679C29.2013 30.5487 29.0916 30.4431 28.9563 30.4431H26.577C26.4417 30.4431 26.332 30.5487 26.332 30.679V36.8106C26.332 36.9409 26.4417 37.0465 26.577 37.0465H28.7631C28.8594 37.0465 28.9467 36.9922 28.9863 36.9077L29.8358 35.0965C29.8754 35.012 29.9628 34.9577 30.059 34.9577H34.0527C34.2345 34.9577 34.3529 35.1417 34.2719 35.2985L28.572 46.341C28.4912 46.4977 28.6095 46.6817 28.7913 46.6817H32.8272C32.9205 46.6817 33.0058 46.6306 33.047 46.55L39.5204 33.8677C39.5586 33.793 39.553 33.7044 39.5056 33.6346L37.7314 31.0215C37.6866 30.955 37.6097 30.9149 37.527 30.9149Z" fill="#FE646F"/>
<path d="M55.6394 27.7731H50.3818C52.3243 27.7731 53.9364 29.1311 54.2523 30.9148H55.5713C55.654 30.9148 55.7311 30.9549 55.7763 31.0215L57.5505 33.6346C57.5979 33.7044 57.6035 33.7929 57.5653 33.8678L54.3096 40.2461V45.5698C54.3096 47.6585 52.5511 49.3518 50.3818 49.3518H55.6394C57.8087 49.3518 59.5672 47.6585 59.5672 45.5698V31.5551C59.5672 29.4665 57.8087 27.7731 55.6394 27.7731Z" fill="#FEDF30"/>
<path d="M55.5709 30.9151H47.4902C47.3549 30.9151 47.2452 30.8095 47.2452 30.6792C47.2452 30.549 47.1355 30.4434 47.0002 30.4434H44.6209C44.4857 30.4434 44.376 30.549 44.376 30.6792V36.8109C44.376 36.9411 44.4857 37.0467 44.6209 37.0467H46.8071C46.9034 37.0467 46.9906 36.9925 47.0302 36.908L47.8797 35.0967C47.9193 35.0122 48.0067 34.958 48.1029 34.958H52.0966C52.2785 34.958 52.3969 35.142 52.3159 35.2987L46.616 46.3412C46.5351 46.498 46.6535 46.682 46.8352 46.682H50.8711C50.9645 46.682 51.0498 46.6309 51.0909 46.5502L57.5644 33.868C57.6026 33.7932 57.597 33.7046 57.5496 33.6349L55.7754 31.0217C55.7306 30.9552 55.6536 30.9151 55.5709 30.9151Z" fill="#FE646F"/>
<path d="M57.5508 33.6349L55.7766 31.0218C55.7314 30.9552 55.6543 30.915 55.5716 30.915H52.9122C52.9948 30.915 53.072 30.9552 53.1171 31.0218L54.8914 33.6349C54.9387 33.7047 54.9443 33.7932 54.9061 33.868L48.4327 46.5502C48.3915 46.6309 48.3062 46.6819 48.2129 46.6819H50.8723C50.9657 46.6819 51.051 46.6308 51.0921 46.5502L57.5656 33.8679C57.6038 33.7932 57.598 33.7047 57.5508 33.6349Z" fill="#FD4755"/>
<path d="M39.5059 33.6349L37.7317 31.0218C37.6865 30.9552 37.6094 30.915 37.5267 30.915H34.8672C34.9499 30.915 35.027 30.9552 35.0722 31.0218L36.8464 33.6349C36.8938 33.7047 36.8994 33.7932 36.8612 33.868L30.3877 46.5502C30.3466 46.6309 30.2613 46.6819 30.168 46.6819H32.8274C32.9207 46.6819 33.006 46.6308 33.0472 46.5502L39.5207 33.8679C39.5588 33.7932 39.5531 33.7047 39.5059 33.6349Z" fill="#FD4755"/>
<path d="M21.4609 33.6349L19.6867 31.0218C19.6416 30.9552 19.5644 30.915 19.4817 30.915H16.8223C16.905 30.915 16.9821 30.9552 17.0273 31.0218L18.8015 33.6349C18.8489 33.7047 18.8545 33.7932 18.8163 33.868L12.3428 46.5502C12.3017 46.6309 12.2164 46.6819 12.123 46.6819H14.7825C14.8758 46.6819 14.9611 46.6308 15.0023 46.5502L21.4757 33.8679C21.5139 33.7932 21.5082 33.7047 21.4609 33.6349Z" fill="#FD4755"/>
<path d="M32.5001 19.8685C38.2182 19.8685 42.8537 15.4208 42.8537 9.93425C42.8537 4.44772 38.2182 0 32.5001 0C26.7819 0 22.1465 4.44772 22.1465 9.93425C22.1465 15.4208 26.7819 19.8685 32.5001 19.8685Z" fill="#FEDF30"/>
<path d="M32.5004 17.0547C36.599 17.0547 39.9216 13.8668 39.9216 9.93422C39.9216 6.00168 36.599 2.81372 32.5004 2.81372C28.4017 2.81372 25.0791 6.00168 25.0791 9.93422C25.0791 13.8668 28.4017 17.0547 32.5004 17.0547Z" fill="#FED402"/>
<path d="M32.4996 2.8136C31.8339 2.8136 31.1891 2.89897 30.5752 3.05672C33.7407 3.87022 36.0721 6.64047 36.0721 9.9341C36.0721 13.2278 33.7405 15.998 30.5752 16.8115C31.1891 16.9692 31.8338 17.0546 32.4996 17.0546C36.5982 17.0546 39.9209 13.8666 39.9209 9.9341C39.9209 6.00172 36.5982 2.8136 32.4996 2.8136Z" fill="#FAC600"/>
<path d="M33.8381 8.76429H31.1618C30.874 8.76429 30.6398 8.54105 30.6398 8.2668V7.96454C30.6398 7.69042 30.874 7.46729 31.1618 7.46729H35.1611C35.3762 7.46729 35.5505 7.29942 35.5505 7.09229V5.96729C35.5505 5.76017 35.3762 5.59229 35.1611 5.59229H33.4736V4.30542C33.4736 4.09829 33.2992 3.93042 33.0841 3.93042H31.9158C31.7006 3.93042 31.5263 4.09829 31.5263 4.30542V5.59217H31.1616C29.8001 5.59217 28.6924 6.65629 28.6924 7.96442V8.26667C28.6924 9.54005 29.7426 10.5844 31.054 10.6392H33.838C34.1258 10.6392 34.36 10.8624 34.36 11.1367V11.4388C34.36 11.713 34.1258 11.9363 33.838 11.9363H29.554C29.3389 11.9363 29.1645 12.1042 29.1645 12.3113V13.4363C29.1645 13.6434 29.3389 13.8113 29.554 13.8113H31.5263V15.1733C31.5263 15.3804 31.7006 15.5483 31.9158 15.5483H33.0841C33.2992 15.5483 33.4736 15.3804 33.4736 15.1733V13.8113H33.8381C35.1996 13.8113 36.3073 12.747 36.3073 11.4388V11.1367C36.3073 9.82855 35.1996 8.76429 33.8381 8.76429Z" fill="#FEE97D"/>
<path d="M9.23314 25.4998C10.4023 25.4998 11.3501 24.5872 11.3501 23.4614C11.3501 22.3356 10.4023 21.423 9.23314 21.423C8.06399 21.423 7.11621 22.3356 7.11621 23.4614C7.11621 24.5872 8.06399 25.4998 9.23314 25.4998Z" fill="white"/>
<path d="M9.23279 21.4231C8.98186 21.4231 8.74221 21.4673 8.5188 21.5445C9.33613 21.8268 9.92174 22.5773 9.92174 23.4615C9.92174 24.3456 9.336 25.0961 8.5188 25.3785C8.74221 25.4556 8.98186 25.4998 9.23279 25.4998C10.4019 25.4998 11.3497 24.5872 11.3497 23.4615C11.3497 22.3357 10.4019 21.4231 9.23279 21.4231Z" fill="#F9F7F8"/>
<path d="M18.5395 25.4998C19.7087 25.4998 20.6565 24.5872 20.6565 23.4614C20.6565 22.3356 19.7087 21.423 18.5395 21.423C17.3704 21.423 16.4226 22.3356 16.4226 23.4614C16.4226 24.5872 17.3704 25.4998 18.5395 25.4998Z" fill="white"/>
<path d="M18.5392 21.4231C18.2883 21.4231 18.0486 21.4673 17.8252 21.5445C18.6425 21.8268 19.2281 22.5773 19.2281 23.4615C19.2281 24.3456 18.6424 25.0961 17.8252 25.3785C18.0486 25.4556 18.2883 25.4998 18.5392 25.4998C19.7083 25.4998 20.6561 24.5872 20.6561 23.4615C20.6561 22.3357 19.7085 21.4231 18.5392 21.4231Z" fill="#F9F7F8"/>
<path d="M27.8464 25.4998C29.0156 25.4998 29.9634 24.5872 29.9634 23.4614C29.9634 22.3356 29.0156 21.423 27.8464 21.423C26.6773 21.423 25.7295 22.3356 25.7295 23.4614C25.7295 24.5872 26.6773 25.4998 27.8464 25.4998Z" fill="white"/>
<path d="M27.8466 21.4231C27.5956 21.4231 27.356 21.4673 27.1326 21.5445C27.9499 21.8268 28.5355 22.5773 28.5355 23.4615C28.5355 24.3456 27.9498 25.0961 27.1326 25.3785C27.356 25.4556 27.5956 25.4998 27.8466 25.4998C29.0157 25.4998 29.9635 24.5872 29.9635 23.4615C29.9635 22.3357 29.0157 21.4231 27.8466 21.4231Z" fill="#F9F7F8"/>
<path d="M37.1536 25.4998C38.3227 25.4998 39.2705 24.5872 39.2705 23.4614C39.2705 22.3356 38.3227 21.423 37.1536 21.423C35.9844 21.423 35.0366 22.3356 35.0366 23.4614C35.0366 24.5872 35.9844 25.4998 37.1536 25.4998Z" fill="white"/>
<path d="M37.1539 21.4231C36.903 21.4231 36.6634 21.4673 36.4399 21.5445C37.2573 21.8268 37.8429 22.5773 37.8429 23.4615C37.8429 24.3456 37.2571 25.0961 36.4399 25.3785C36.6634 25.4556 36.903 25.4998 37.1539 25.4998C38.3231 25.4998 39.2709 24.5872 39.2709 23.4615C39.2709 22.3357 38.3232 21.4231 37.1539 21.4231Z" fill="#F9F7F8"/>
<path d="M46.4602 25.4998C47.6293 25.4998 48.5771 24.5872 48.5771 23.4614C48.5771 22.3356 47.6293 21.423 46.4602 21.423C45.291 21.423 44.3433 22.3356 44.3433 23.4614C44.3433 24.5872 45.291 25.4998 46.4602 25.4998Z" fill="white"/>
<path d="M46.4601 21.4231C46.2092 21.4231 45.9695 21.4673 45.7461 21.5445C46.5634 21.8268 47.149 22.5773 47.149 23.4615C47.149 24.3456 46.5633 25.0961 45.7461 25.3785C45.9695 25.4556 46.2092 25.4998 46.4601 25.4998C47.6292 25.4998 48.577 24.5872 48.577 23.4615C48.577 22.3357 47.6292 21.4231 46.4601 21.4231Z" fill="#F9F7F8"/>
<path d="M55.7673 25.4998C56.9365 25.4998 57.8843 24.5872 57.8843 23.4614C57.8843 22.3356 56.9365 21.423 55.7673 21.423C54.5982 21.423 53.6504 22.3356 53.6504 23.4614C53.6504 24.5872 54.5982 25.4998 55.7673 25.4998Z" fill="white"/>
<path d="M55.7672 21.4231C55.5163 21.4231 55.2766 21.4673 55.0532 21.5445C55.8706 21.8268 56.4562 22.5773 56.4562 23.4615C56.4562 24.3456 55.8704 25.0961 55.0532 25.3785C55.2766 25.4556 55.5163 25.4998 55.7672 25.4998C56.9364 25.4998 57.8842 24.5872 57.8842 23.4615C57.8842 22.3357 56.9365 21.4231 55.7672 21.4231Z" fill="#F9F7F8"/>
</svg>
