<svg width="65" height="64" viewBox="0 0 65 64" fill="none" xmlns="http://www.w3.org/2000/svg">
<path d="M58.9585 13.1534V42.9714H62.9845C64.1801 39.5494 64.8335 35.8546 64.8335 32C64.8335 24.9533 62.652 18.4401 58.9585 13.1534Z" fill="#AF66DA"/>
<path d="M53.6967 7.31429C48.4018 2.74508 41.612 0 34.2085 0C26.805 0 20.0151 2.74508 14.7202 7.31429H53.6967Z" fill="#AF66DA"/>
<path d="M58.9585 42.8408V47.8554C58.9585 48.9596 58.0988 49.858 57.042 49.858H8.79541C10.2169 52.0622 11.8933 54.0719 13.7815 55.8399C14.7702 55.2333 15.8993 54.9124 17.0499 54.9124H42.867C45.7915 54.9124 48.3604 56.9724 49.1142 59.9222L49.1224 59.9546C55.5262 56.2159 60.5132 50.1447 63.0298 42.8408H58.9585Z" fill="#05E39C"/>
<path d="M23.7085 49.858H36.2085V54.9124H23.7085V49.858Z" fill="#A79BA7"/>
<path d="M31.2085 49.858H36.2085V54.9124H31.2085V49.858Z" fill="#918291"/>
<path d="M13.6841 55.7477C19.1146 60.8763 26.3121 64 34.2086 64C39.6695 64 44.7958 62.5061 49.235 59.8885C48.4837 56.948 45.9181 54.7818 42.8672 54.7818H17.05C15.8201 54.7818 14.6695 55.1348 13.6841 55.7477Z" fill="#7A6D79"/>
<path d="M13.6841 55.7477C19.1146 60.8763 26.3121 64 34.2086 64C39.6695 64 44.7958 62.5061 49.235 59.8885C48.4837 56.948 45.9181 54.7818 42.8672 54.7818H17.05C15.8201 54.7818 14.6695 55.1348 13.6841 55.7477Z" fill="#7A6D79"/>
<path d="M42.6208 58.5271V62.777C44.9509 62.0828 47.1677 61.1076 49.2353 59.8885C48.4841 56.948 45.9184 54.7818 42.8676 54.7818H40.1851C41.3589 55.6957 42.2326 57.0076 42.6208 58.5271Z" fill="#554E56"/>
<path d="M57.042 49.9884H2.875C1.7475 49.9884 0.833496 49.0334 0.833496 47.8554V9.31681C0.833496 8.13869 1.7475 7.18365 2.875 7.18365H57.042C58.1695 7.18365 59.0835 8.13869 59.0835 9.31681V47.8554C59.0835 49.0334 58.1695 49.9884 57.042 49.9884Z" fill="#7A6D79"/>
<path d="M57.0425 7.18365H50.7925C51.92 7.18365 52.834 8.13869 52.834 9.31681H56.362C56.7379 9.31681 57.0425 9.63512 57.0425 10.0279V42.878C57.0425 43.2708 56.7379 43.5891 56.362 43.5891H52.834V47.8554C52.834 49.0335 51.92 49.9886 50.7925 49.9886H57.0425C58.17 49.9886 59.084 49.0335 59.084 47.8554V9.31681C59.084 8.13869 58.17 7.18365 57.0425 7.18365Z" fill="#554E56"/>
<path d="M2.87451 42.878V10.0279C2.87451 9.63514 3.17914 9.31683 3.55501 9.31683H56.3611C56.737 9.31683 57.0416 9.63514 57.0416 10.0279V42.878C57.0416 43.2708 56.737 43.5891 56.3611 43.5891H3.55501C3.17914 43.5891 2.87451 43.2708 2.87451 42.878Z" fill="#0ED290"/>
<path d="M56.3615 9.31683H52.8335V11.8766H53.4249C53.6956 11.8766 53.9172 12.108 53.9172 12.3909V27.9617C53.9172 28.2446 53.6957 28.4762 53.4249 28.4762H52.8335V30.787H53.4249C53.6956 30.787 53.9172 31.0184 53.9172 31.3014V39.918C53.9172 40.2009 53.6957 40.4325 53.4249 40.4325H52.8335V43.5892H56.3615C56.7374 43.5892 57.042 43.2709 57.042 42.8782V10.0279C57.042 9.63514 56.7374 9.31683 56.3615 9.31683Z" fill="#00C285"/>
<path d="M24.5149 40.4323H7.30501C6.58401 40.4323 5.99951 39.8216 5.99951 39.0682V13.2407C5.99951 12.4873 6.58401 11.8766 7.30501 11.8766H24.5149C25.2359 11.8766 25.8204 12.4873 25.8204 13.2407V39.0682C25.8204 39.8216 25.2359 40.4323 24.5149 40.4323Z" fill="white"/>
<path d="M24.5154 11.8766H21.4072C22.1282 11.8766 22.7127 12.4873 22.7127 13.2407V39.0682C22.7127 39.8216 22.1282 40.4323 21.4072 40.4323H24.5154C25.2364 40.4323 25.8209 39.8216 25.8209 39.0682V13.2407C25.8209 12.4873 25.2364 11.8766 24.5154 11.8766Z" fill="#F9F7F8"/>
<path d="M21.1352 24.5853L16.0906 19.109C15.9922 19.0023 15.8287 19.0023 15.7304 19.109L10.6857 24.5853C9.04811 26.3632 9.64686 29.3833 11.8132 30.2724C12.9399 30.7348 14.1086 30.4593 14.9455 29.7268L13.5971 32.1672C13.5009 32.3413 13.6211 32.559 13.8136 32.559H18.0075C18.2 32.559 18.3202 32.3413 18.224 32.1672L16.8756 29.7268C17.7125 30.4593 18.8812 30.7348 20.0079 30.2724C22.1741 29.3833 22.7729 26.3632 21.1352 24.5853Z" fill="#554E56"/>
<path d="M21.1346 24.5853L16.09 19.109C15.9916 19.0023 15.8281 19.0023 15.7298 19.109L14.604 20.3311L18.5229 24.5854C20.1148 26.3135 19.5931 29.2151 17.5728 30.1926C18.3044 30.5515 19.1674 30.6172 20.0071 30.2725C22.1735 29.3833 22.7723 26.3632 21.1346 24.5853Z" fill="#433F43"/>
<path d="M10.1084 19.7076L8.85373 18.3457L7.5991 19.7076C7.20585 20.1344 7.3496 20.8597 7.86985 21.0731C8.14035 21.1842 8.42098 21.1181 8.62198 20.9421L8.24623 21.6222H9.46123L9.08548 20.9421C9.28648 21.1181 9.5671 21.1842 9.8376 21.0731C10.3579 20.8597 10.5016 20.1346 10.1084 19.7076Z" fill="#433F43"/>
<path d="M8.21731 17.4925H9.49068L9.65856 18.097H10.4291L9.20931 13.704C9.16343 13.5387 9.01868 13.4251 8.85393 13.4251C8.68931 13.4251 8.54443 13.5387 8.49856 13.704L7.27881 18.097H8.04943L8.21731 17.4925ZM8.85393 15.1993L9.27593 16.7192H8.43193L8.85393 15.1993Z" fill="#433F43"/>
<path d="M21.7118 32.5379L22.9664 33.8998L24.2211 32.5379C24.6143 32.1111 24.4706 31.3858 23.9503 31.1724C23.6798 31.0614 23.3992 31.1275 23.1982 31.3034L23.5739 30.6233H22.3589L22.7347 31.3034C22.5337 31.1275 22.2531 31.0614 21.9826 31.1724C21.4624 31.3858 21.3187 32.111 21.7118 32.5379Z" fill="#433F43"/>
<path d="M23.5864 34.8763H22.346L22.1616 34.2123H21.3911L22.6109 38.6052C22.6567 38.7704 22.8015 38.884 22.9662 38.884C23.1309 38.884 23.2757 38.7704 23.3216 38.6052L24.5414 34.2123H23.7707L23.5864 34.8763ZM22.9661 37.1099L22.5606 35.6495H23.3715L22.9661 37.1099Z" fill="#433F43"/>
<path d="M35.7015 40.4322H29.7936C29.5229 40.4322 29.3013 40.2008 29.3013 39.9177V31.3011C29.3013 31.0182 29.5228 30.7866 29.7936 30.7866H35.7015C35.9723 30.7866 36.1939 31.0181 36.1939 31.3011V39.9177C36.1938 40.2008 35.9723 40.4322 35.7015 40.4322Z" fill="white"/>
<path d="M35.7016 30.7869H33.7163C33.9871 30.7869 34.2086 31.0183 34.2086 31.3012V33.5093C34.6276 33.6679 34.9438 34.0697 34.9911 34.5467C35.0286 34.9254 34.9029 35.2742 34.6787 35.5256L34.2087 36.0729V39.918C34.2087 40.2009 33.9872 40.4324 33.7164 40.4324H35.7017C35.9724 40.4324 36.1941 40.201 36.1941 39.918V31.3013C36.1939 31.0184 35.9724 30.7869 35.7016 30.7869Z" fill="#F9F7F8"/>
<path d="M44.5633 40.4322H38.6555C38.3847 40.4322 38.1631 40.2008 38.1631 39.9177V31.3011C38.1631 31.0182 38.3846 30.7866 38.6555 30.7866H44.5633C44.8341 30.7866 45.0557 31.0181 45.0557 31.3011V39.9177C45.0557 40.2008 44.8342 40.4322 44.5633 40.4322Z" fill="white"/>
<path d="M44.5629 30.7869H42.5776C42.8484 30.7869 43.0699 31.0183 43.0699 31.3012V32.0729H43.4494C43.6565 32.0729 43.8244 32.2483 43.8244 32.4647V38.7543C43.8244 38.9708 43.6565 39.1462 43.4494 39.1462H43.0699V39.9178C43.0699 40.2007 42.8484 40.4323 42.5776 40.4323H44.5629C44.8336 40.4323 45.0551 40.2009 45.0551 39.9178V31.3012C45.0553 31.0184 44.8338 30.7869 44.5629 30.7869Z" fill="#F9F7F8"/>
<path d="M39.394 38.7545V32.4648C39.394 32.2484 39.5619 32.073 39.769 32.073H43.4499C43.657 32.073 43.8249 32.2484 43.8249 32.4648V38.7545C43.8249 38.9709 43.657 39.1463 43.4499 39.1463H39.769C39.5619 39.1463 39.394 38.9709 39.394 38.7545Z" fill="#E2DEE2"/>
<path d="M43.4495 32.073H42.1392C42.3463 32.073 42.5142 32.2484 42.5142 32.4648V38.7545C42.5142 38.9709 42.3463 39.1463 42.1392 39.1463H43.4495C43.6567 39.1463 43.8245 38.9709 43.8245 38.7545V32.4648C43.8245 32.2484 43.6565 32.073 43.4495 32.073Z" fill="#CBC4CC"/>
<path d="M53.4247 40.4322H47.5168C47.246 40.4322 47.0244 40.2008 47.0244 39.9177V31.3011C47.0244 31.0182 47.2459 30.7866 47.5168 30.7866H53.4247C53.6954 30.7866 53.917 31.0181 53.917 31.3011V39.9177C53.917 40.2008 53.6954 40.4322 53.4247 40.4322Z" fill="white"/>
<path d="M53.4247 30.7869H51.4395C51.7102 30.7869 51.9317 31.0183 51.9317 31.3012V34.7423L52.5101 35.4382C52.5917 35.5364 52.5917 35.6825 52.5101 35.7808L51.9317 36.4767V39.9178C51.9317 40.2007 51.7102 40.4323 51.4395 40.4323H53.4247C53.6955 40.4323 53.9171 40.2009 53.9171 39.9178V31.3012C53.9171 31.0184 53.6955 30.7869 53.4247 30.7869Z" fill="#F9F7F8"/>
<path d="M50.282 38.0075L48.4313 35.7808C48.3497 35.6826 48.3497 35.5365 48.4313 35.4382L50.282 33.2116C50.3816 33.0917 50.5598 33.0917 50.6595 33.2116L52.5101 35.4382C52.5917 35.5365 52.5917 35.6826 52.5101 35.7808L50.6595 38.0075C50.5598 38.1274 50.3816 38.1274 50.282 38.0075Z" fill="#FE646F"/>
<path d="M52.5099 35.4384L50.6594 33.2117C50.5598 33.0918 50.3815 33.0918 50.2819 33.2117L49.8271 33.7588L51.223 35.4384C51.3046 35.5366 51.3046 35.6826 51.223 35.781L49.8271 37.4605L50.2819 38.0076C50.3815 38.1275 50.5598 38.1275 50.6594 38.0076L52.5099 35.781C52.5915 35.6826 52.5915 35.5366 52.5099 35.4384Z" fill="#FD4755"/>
<path d="M33.9061 33.4407C33.402 33.3986 32.9574 33.6854 32.7475 34.1176C32.5376 33.6854 32.093 33.3986 31.5889 33.4407C31.0266 33.4876 30.5621 33.9604 30.5041 34.5467C30.4666 34.9255 30.5922 35.2742 30.8165 35.5256L32.5615 37.5565C32.6609 37.6721 32.8342 37.6721 32.9335 37.5565L34.6785 35.5256C34.9028 35.2742 35.0284 34.9255 34.9909 34.5467C34.933 33.9604 34.4685 33.4876 33.9061 33.4407Z" fill="#FE646F"/>
<path d="M34.991 34.5467C34.933 33.9604 34.4685 33.4875 33.9063 33.4406C33.6309 33.4177 33.3735 33.4934 33.1623 33.6368C33.4564 33.8365 33.6645 34.1675 33.702 34.5467C33.7395 34.9254 33.6139 35.2742 33.3897 35.5256L32.103 37.023L32.5615 37.5565C32.6609 37.6721 32.8343 37.6721 32.9335 37.5565L34.6785 35.5256C34.9029 35.2742 35.0285 34.9254 34.991 34.5467Z" fill="#FD4755"/>
<path d="M36.0686 24.0209V24.1515C36.0686 24.3631 35.9039 24.5352 35.7014 24.5352H29.7935C29.591 24.5352 29.4263 24.3631 29.4263 24.1515V24.0209H29.3013V27.9618C29.3013 28.2447 29.5228 28.4763 29.7935 28.4763H35.7014C35.9721 28.4763 36.1938 28.2449 36.1938 27.9618V24.0209H36.0686Z" fill="white"/>
<path d="M30.5317 24.5351V26.7982C30.5317 27.0146 30.6996 27.19 30.9067 27.19H34.5876C34.7947 27.19 34.9626 27.0146 34.9626 26.7982V24.5351H30.5317Z" fill="#E2DEE2"/>
<path d="M33.7085 24.5351V26.7982C33.7085 27.0146 33.5406 27.19 33.3335 27.19H34.588C34.7951 27.19 34.963 27.0146 34.963 26.7982V24.5351H33.7085Z" fill="#CBC4CC"/>
<path d="M44.9306 24.0209V24.1515C44.9306 24.3631 44.766 24.5352 44.5633 24.5352H38.6553C38.4528 24.5352 38.2881 24.3631 38.2881 24.1515V24.0209H38.1631V27.9618C38.1631 28.2447 38.3846 28.4763 38.6553 28.4763H44.5632C44.834 28.4763 45.0555 28.2449 45.0555 27.9618V24.0209H44.9306Z" fill="white"/>
<path d="M39.394 24.5351V26.7982C39.394 27.0146 39.5619 27.19 39.769 27.19H43.4499C43.657 27.19 43.8249 27.0146 43.8249 26.7982V24.5351H39.394Z" fill="#E2DEE2"/>
<path d="M42.5142 24.5351V26.7982C42.5142 27.0146 42.3463 27.19 42.1392 27.19H43.4495C43.6567 27.19 43.8245 27.0146 43.8245 26.7982V24.5351H42.5142Z" fill="#CBC4CC"/>
<path d="M53.7923 24.0209V24.1515C53.7923 24.3631 53.6275 24.5352 53.425 24.5352H47.5172C47.3147 24.5352 47.1499 24.3631 47.1499 24.1515V24.0209H47.0249V27.9618C47.0249 28.2447 47.2464 28.4763 47.5172 28.4763H53.4249C53.6957 28.4763 53.9173 28.2449 53.9173 27.9618V24.0209H53.7923Z" fill="white"/>
<path d="M48.2554 24.5351V26.7982C48.2554 27.0146 48.4232 27.19 48.6304 27.19H52.3112C52.5184 27.19 52.6862 27.0146 52.6862 26.7982V24.5351H48.2554Z" fill="#E2DEE2"/>
<path d="M51.3892 24.5351V26.7982C51.3892 27.0146 51.2213 27.19 51.0142 27.19H52.3112C52.5183 27.19 52.6862 27.0146 52.6862 26.7982V24.5351H51.3892Z" fill="#CBC4CC"/>
<path d="M36.0686 21.0076C36.0686 21.2192 35.9039 21.3913 35.7014 21.3913H29.7935C29.591 21.3913 29.4263 21.2192 29.4263 21.0076H29.3013V24.1514C29.3013 24.4343 29.5228 24.6659 29.7935 24.6659H35.7014C35.9721 24.6659 36.1938 24.4344 36.1938 24.1514V21.0076H36.0686Z" fill="#F3F0F3"/>
<path d="M30.5317 21.3915V22.9881C30.5317 23.2046 30.6996 23.38 30.9067 23.38H34.5876C34.7947 23.38 34.9626 23.2046 34.9626 22.9881V21.3915H30.5317Z" fill="#E2DEE2"/>
<path d="M33.7085 21.3915V22.9881C33.7085 23.2046 33.5406 23.38 33.3335 23.38H34.588C34.7951 23.38 34.963 23.2046 34.963 22.9881V21.3915H33.7085Z" fill="#CBC4CC"/>
<path d="M44.9305 21.0076C44.9305 21.2192 44.7657 21.3913 44.5631 21.3913H38.6553C38.4528 21.3913 38.2881 21.2192 38.2881 21.0076H38.1631V24.1514C38.1631 24.4343 38.3846 24.6659 38.6553 24.6659H44.5632C44.834 24.6659 45.0555 24.4344 45.0555 24.1514V21.0076H44.9305Z" fill="#F3F0F3"/>
<path d="M39.394 21.3915V22.9881C39.394 23.2046 39.5619 23.38 39.769 23.38H43.4499C43.657 23.38 43.8249 23.2046 43.8249 22.9881V21.3915H39.394Z" fill="#E2DEE2"/>
<path d="M42.5142 21.3915V22.9881C42.5142 23.2046 42.3463 23.38 42.1392 23.38H43.4495C43.6567 23.38 43.8245 23.2046 43.8245 22.9881V21.3915H42.5142Z" fill="#CBC4CC"/>
<path d="M53.7923 21.0076C53.7923 21.2192 53.6275 21.3913 53.425 21.3913H47.5172C47.3147 21.3913 47.1499 21.2192 47.1499 21.0076H47.0249V24.1514C47.0249 24.4343 47.2464 24.6659 47.5172 24.6659H53.4249C53.6957 24.6659 53.9173 24.4344 53.9173 24.1514V21.0076H53.7923Z" fill="#F3F0F3"/>
<path d="M48.2554 21.3915V22.9881C48.2554 23.2046 48.4232 23.38 48.6304 23.38H52.3112C52.5184 23.38 52.6862 23.2046 52.6862 22.9881V21.3915H48.2554Z" fill="#E2DEE2"/>
<path d="M51.3892 21.3915V22.9881C51.3892 23.2046 51.2213 23.38 51.0142 23.38H52.3112C52.5183 23.38 52.6862 23.2046 52.6862 22.9881V21.3915H51.3892Z" fill="#CBC4CC"/>
<path d="M35.7015 21.522H29.7936C29.5229 21.522 29.3013 21.2906 29.3013 21.0076V12.3909C29.3013 12.108 29.5228 11.8765 29.7936 11.8765H35.7015C35.9723 11.8765 36.1939 12.1079 36.1939 12.3909V21.0076C36.1938 21.2905 35.9723 21.522 35.7015 21.522Z" fill="white"/>
<path d="M30.5317 19.844V13.5544C30.5317 13.3379 30.6996 13.1625 30.9067 13.1625H34.5876C34.7947 13.1625 34.9626 13.3379 34.9626 13.5544V19.844C34.9626 20.0604 34.7947 20.2358 34.5876 20.2358H30.9067C30.6996 20.2358 30.5317 20.0604 30.5317 19.844Z" fill="#E2DEE2"/>
<path d="M34.588 13.1625H33.3335C33.5406 13.1625 33.7085 13.3379 33.7085 13.5544V19.844C33.7085 20.0604 33.5406 20.2358 33.3335 20.2358H34.588C34.7951 20.2358 34.963 20.0604 34.963 19.844V13.5544C34.963 13.3379 34.7951 13.1625 34.588 13.1625Z" fill="#CBC4CC"/>
<path d="M44.5633 21.522H38.6555C38.3847 21.522 38.1631 21.2906 38.1631 21.0076V12.3909C38.1631 12.108 38.3846 11.8765 38.6555 11.8765H44.5633C44.8341 11.8765 45.0557 12.1079 45.0557 12.3909V21.0076C45.0557 21.2905 44.8342 21.522 44.5633 21.522Z" fill="white"/>
<path d="M39.394 19.844V13.5544C39.394 13.3379 39.5619 13.1625 39.769 13.1625H43.4499C43.657 13.1625 43.8249 13.3379 43.8249 13.5544V19.844C43.8249 20.0604 43.657 20.2358 43.4499 20.2358H39.769C39.5619 20.2358 39.394 20.0604 39.394 19.844Z" fill="#E2DEE2"/>
<path d="M43.4495 13.1625H42.1392C42.3463 13.1625 42.5142 13.3379 42.5142 13.5544V19.844C42.5142 20.0604 42.3463 20.2358 42.1392 20.2358H43.4495C43.6567 20.2358 43.8245 20.0604 43.8245 19.844V13.5544C43.8245 13.3379 43.6565 13.1625 43.4495 13.1625Z" fill="#CBC4CC"/>
<path d="M53.4247 21.522H47.5168C47.246 21.522 47.0244 21.2906 47.0244 21.0076V12.3909C47.0244 12.108 47.2459 11.8765 47.5168 11.8765H53.4247C53.6954 11.8765 53.917 12.1079 53.917 12.3909V21.0076C53.917 21.2905 53.6954 21.522 53.4247 21.522Z" fill="white"/>
<path d="M48.2554 19.844V13.5544C48.2554 13.3379 48.4232 13.1625 48.6304 13.1625H52.3112C52.5184 13.1625 52.6862 13.3379 52.6862 13.5544V19.844C52.6862 20.0604 52.5184 20.2358 52.3112 20.2358H48.6304C48.4234 20.2358 48.2554 20.0604 48.2554 19.844Z" fill="#E2DEE2"/>
<path d="M52.3112 13.1625H51.0142C51.2213 13.1625 51.3892 13.3379 51.3892 13.5544V19.844C51.3892 20.0604 51.2213 20.2358 51.0142 20.2358H52.3112C52.5183 20.2358 52.6862 20.0604 52.6862 19.844V13.5544C52.6862 13.3379 52.5183 13.1625 52.3112 13.1625Z" fill="#CBC4CC"/>
</svg>
