<svg width="65" height="64" viewBox="0 0 65 64" fill="none" xmlns="http://www.w3.org/2000/svg">
<path d="M60.2743 48.75C62.9604 44.2313 64.5001 38.9792 64.5001 33.375C64.5001 16.4613 50.4878 2.75 33.2027 2.75C15.9176 2.75 1.90527 16.4613 1.90527 33.375C1.90527 38.9792 3.44498 44.2313 6.13106 48.75H60.2743Z" fill="#AF66DA"/>
<path d="M6.05566 48.625C11.458 57.8132 21.592 64 33.2028 64C44.8136 64 54.9476 57.8132 60.3499 48.625H6.05566Z" fill="#0ED290"/>
<path d="M46.2964 58.5H20.1088C18.7739 58.5 17.6816 57.4313 17.6816 56.125C17.6816 54.8188 18.7739 53.75 20.1088 53.75H46.2964C47.6313 53.75 48.7236 54.8188 48.7236 56.125C48.7236 57.4313 47.6313 58.5 46.2964 58.5Z" fill="#00C285"/>
<path d="M10.6883 25.125C16.3151 25.125 20.8765 20.6773 20.8765 15.1907C20.8765 9.70419 16.3151 5.25647 10.6883 5.25647C5.06144 5.25647 0.5 9.70419 0.5 15.1907C0.5 20.6773 5.06144 25.125 10.6883 25.125Z" fill="#FEDF30"/>
<path d="M10.6885 22.3108C14.7217 22.3108 17.9913 19.1229 17.9913 15.1903C17.9913 11.2578 14.7217 8.06982 10.6885 8.06982C6.6553 8.06982 3.38574 11.2578 3.38574 15.1903C3.38574 19.1229 6.6553 22.3108 10.6885 22.3108Z" fill="#FED402"/>
<path d="M10.6886 8.06982C10.0335 8.06982 9.39903 8.1552 8.79492 8.31295C11.9098 9.12645 14.204 11.8967 14.204 15.1903C14.204 18.4841 11.9097 21.2542 8.79492 22.0677C9.39903 22.2254 10.0334 22.3108 10.6886 22.3108C14.7218 22.3108 17.9914 19.1228 17.9914 15.1903C17.9914 11.2579 14.7218 8.06982 10.6886 8.06982Z" fill="#FAC600"/>
<path d="M12.0049 14.0205H9.37136C9.08815 14.0205 8.8577 13.7972 8.8577 13.523V13.2207C8.8577 12.9466 9.08815 12.7235 9.37136 12.7235H13.3068C13.5185 12.7235 13.69 12.5556 13.69 12.3485V11.2235C13.69 11.0163 13.5185 10.8485 13.3068 10.8485H11.6462V9.56158C11.6462 9.35446 11.4747 9.18658 11.263 9.18658H10.1133C9.90163 9.18658 9.73007 9.35446 9.73007 9.56158V10.8483H9.37123C8.03145 10.8483 6.94141 11.9125 6.94141 13.2206V13.5228C6.94141 14.7962 7.97486 15.8406 9.26533 15.8953H12.0048C12.288 15.8953 12.5185 16.1186 12.5185 16.3928V16.695C12.5185 16.9692 12.288 17.1925 12.0048 17.1925H7.78925C7.57757 17.1925 7.40601 17.3603 7.40601 17.5675V18.6925C7.40601 18.8996 7.57757 19.0675 7.78925 19.0675H9.72994V20.4295C9.72994 20.6366 9.9015 20.8045 10.1132 20.8045H11.2629C11.4745 20.8045 11.6461 20.6366 11.6461 20.4295V19.0675H12.0048C13.3446 19.0675 14.4346 18.0032 14.4346 16.695V16.3928C14.4348 15.0847 13.3447 14.0205 12.0049 14.0205Z" fill="#FEE97D"/>
<path d="M52.2053 18.8817C48.2281 18.8817 44.7855 21.1053 43.1074 24.3458L52.3394 38.7468C57.9041 38.6764 62.3935 34.2587 62.3935 28.8159C62.3935 23.3295 57.832 18.8817 52.2053 18.8817Z" fill="#FEE97D"/>
<path d="M52.2055 21.6951C48.6774 21.6951 45.7337 24.1347 45.0518 27.3781L50.3967 35.7156C50.9751 35.8593 51.5812 35.9361 52.2056 35.9361C56.2387 35.9361 59.5083 32.7481 59.5083 28.8156C59.5082 24.8832 56.2386 21.6951 52.2055 21.6951Z" fill="#FEDF30"/>
<path d="M52.2051 21.6951C51.55 21.6951 50.9155 21.7804 50.3115 21.9382C53.4264 22.7517 55.7206 25.5219 55.7206 28.8156C55.7206 32.0882 53.4553 34.8429 50.3709 35.6761L50.3948 35.7133C50.9739 35.8576 51.5799 35.9361 52.2051 35.9361C56.2382 35.9361 59.5078 32.7481 59.5078 28.8156C59.5078 24.8832 56.2382 21.6951 52.2051 21.6951Z" fill="#FED402"/>
<path d="M53.5225 27.6457H50.8889C50.6057 27.6457 50.3753 27.4225 50.3753 27.1482V26.846C50.3753 26.5718 50.6057 26.3487 50.8889 26.3487H54.8244C55.036 26.3487 55.2076 26.1808 55.2076 25.9737V24.8487C55.2076 24.6416 55.036 24.4737 54.8244 24.4737H53.1638V23.187C53.1638 22.9798 52.9923 22.812 52.7806 22.812H51.6309C51.4192 22.812 51.2476 22.9798 51.2476 23.187V24.4737H50.8888C49.549 24.4737 48.459 25.5378 48.459 26.846V27.1482C48.459 28.4216 49.4924 29.466 50.7829 29.5207H53.5224C53.8056 29.5207 54.0361 29.744 54.0361 30.0182V30.3203C54.0361 30.5946 53.8056 30.8178 53.5224 30.8178H49.3068C49.0952 30.8178 48.9236 30.9857 48.9236 31.1928V32.3178C48.9236 32.525 49.0952 32.6928 49.3068 32.6928H51.2475V34.0548C51.2475 34.262 51.4191 34.4298 51.6308 34.4298H52.7805C52.9921 34.4298 53.1637 34.262 53.1637 34.0548V32.6928H53.5224C54.8622 32.6928 55.9522 31.6286 55.9522 30.3203V30.0182C55.9524 28.71 54.8623 27.6457 53.5225 27.6457Z" fill="#FEF0AE"/>
<path d="M39.6646 1.20563H26.7407C24.859 1.20563 23.623 3.1285 24.4377 4.78813L28.4079 12.875H37.9974L41.9676 4.78825C42.7823 3.1285 41.5463 1.20563 39.6646 1.20563Z" fill="#FEDF30"/>
<path d="M31.276 12.875H35.1291L37.4257 1.23325C37.5519 0.593625 37.0512 0 36.3855 0H30.0197C29.3541 0 28.8533 0.593625 28.9795 1.23325L31.276 12.875Z" fill="#FED402"/>
<path d="M53.9946 41.0937L39.179 17.983C39.0831 17.9935 38.9859 18 38.887 18H27.5177C27.4189 18 27.3216 17.9935 27.2257 17.983L12.4102 41.0937C11.7725 42.184 11.8639 43.542 12.6424 44.5408L20.5885 54.7375C21.1926 55.5126 22.1318 55.9676 23.128 55.9676H43.2767C44.273 55.9676 45.2121 55.5127 45.8162 54.7375L53.7623 44.5408C54.5407 43.5418 54.6321 42.184 53.9946 41.0937Z" fill="#FEDF30"/>
<path d="M53.9946 41.0937L39.179 17.983C39.0831 17.9935 38.9859 18 38.887 18H32.8018L48.0281 41.8132C48.4107 42.4673 48.3558 43.2821 47.8888 43.8815L38.4703 55.9675H43.2767C44.273 55.9675 45.2121 55.5126 45.8162 54.7373L53.7623 44.5407C54.5407 43.5418 54.6321 42.184 53.9946 41.0937Z" fill="#FED402"/>
<path d="M24.7715 15.4375C24.7715 16.9218 26.0012 18.125 27.518 18.125H38.8873C40.4041 18.125 41.6338 16.9218 41.6338 15.4375C41.6338 13.9533 40.4041 12.75 38.8873 12.75H27.518C26.0012 12.75 24.7715 13.9533 24.7715 15.4375Z" fill="#F6A96C"/>
<path d="M38.8869 12.75H37.3217C37.4653 13.076 37.5456 13.435 37.5456 13.8125C37.5456 15.2968 36.316 16.5 34.7991 16.5H24.9951C25.416 17.4556 26.3866 18.125 27.5177 18.125H38.8869C40.4038 18.125 41.6335 16.9218 41.6335 15.4375C41.6335 13.9533 40.4038 12.75 38.8869 12.75Z" fill="#EA9B58"/>
<path d="M33.2028 51.461C40.1347 51.461 45.7542 45.9817 45.7542 39.2226C45.7542 32.4636 40.1347 26.9843 33.2028 26.9843C26.2708 26.9843 20.6514 32.4636 20.6514 39.2226C20.6514 45.9817 26.2708 51.461 33.2028 51.461Z" fill="#FAC600"/>
<path d="M33.2026 47.9946C38.1712 47.9946 42.1991 44.0672 42.1991 39.2225C42.1991 34.3778 38.1712 30.4504 33.2026 30.4504C28.2339 30.4504 24.2061 34.3778 24.2061 39.2225C24.2061 44.0672 28.2339 47.9946 33.2026 47.9946Z" fill="#FEF0AE"/>
<path d="M33.2025 30.4504C32.5203 30.4504 31.8566 30.5269 31.2178 30.6673C35.231 31.5489 38.2297 35.0433 38.2297 39.2225C38.2297 43.4019 35.231 46.8963 31.2178 47.7778C31.8566 47.9181 32.5203 47.9946 33.2025 47.9946C38.1712 47.9946 42.1992 44.0673 42.1992 39.2225C42.1992 34.378 38.1712 30.4504 33.2025 30.4504Z" fill="#FEE97D"/>
<path d="M34.8251 37.6861H34.6712H31.5808C31.2854 37.6861 31.0451 37.4539 31.0451 37.1683V36.7959C31.0451 36.5105 31.2854 36.2784 31.5808 36.2784H36.615C36.8267 36.2784 36.9983 36.1105 36.9983 35.9034V34.1534C36.9983 33.9463 36.8267 33.7784 36.615 33.7784H34.4804V32.1061C34.4804 31.899 34.3089 31.7311 34.0972 31.7311H32.3088C32.0971 31.7311 31.9255 31.899 31.9255 32.1061V33.7784H31.5808C29.8766 33.7784 28.4902 35.132 28.4902 36.7959V37.1683C28.4902 38.8323 29.8766 40.1861 31.5808 40.1861H34.8251C35.1204 40.1861 35.3607 40.4184 35.3607 40.704V41.0763C35.3607 41.3619 35.1204 41.5941 34.8251 41.5941H29.4459C29.2342 41.5941 29.0627 41.762 29.0627 41.9691V43.7191C29.0627 43.9263 29.2342 44.0941 29.4459 44.0941H31.9255V45.859C31.9255 46.0661 32.0971 46.234 32.3088 46.234H34.0972C34.3089 46.234 34.4804 46.0661 34.4804 45.859V44.0941H34.8251C36.5292 44.0941 37.9156 42.7403 37.9156 41.0763V40.704C37.9157 39.04 36.5292 37.6861 34.8251 37.6861Z" fill="#FED402"/>
<path d="M49.0734 17.125C48.9456 17.125 48.8309 17.0526 48.782 16.942C48.1226 15.4473 47.6365 14.9908 46.0444 14.3714C45.9266 14.3255 45.8496 14.2174 45.8496 14.0975C45.8496 13.9776 45.9268 13.8694 46.0444 13.8236C47.6365 13.2044 48.1226 12.7479 48.782 11.253C48.8309 11.1423 48.9456 11.07 49.0734 11.07C49.2014 11.07 49.3163 11.1423 49.3651 11.253C50.0244 12.7479 50.5108 13.2044 52.1026 13.8236C52.2205 13.8695 52.2973 13.9776 52.2973 14.0975C52.2973 14.2174 52.2204 14.3255 52.1026 14.3714C50.5108 14.9908 50.0244 15.4473 49.3651 16.942C49.3165 17.0526 49.2014 17.125 49.0734 17.125Z" fill="#FEDF30"/>
<path d="M52.1027 13.8236C51.5694 13.6163 51.1621 13.4264 50.8289 13.2104C49.2879 13.8173 48.8038 14.2816 48.1533 15.7563C48.1514 15.7606 48.1477 15.764 48.1455 15.7684C48.3688 16.0771 48.5663 16.4535 48.7819 16.9421C48.8309 17.0529 48.9456 17.1251 49.0733 17.1251C49.2013 17.1251 49.3163 17.0528 49.3651 16.9421C50.0244 15.4474 50.5107 14.9909 52.1025 14.3715C52.2204 14.3256 52.2972 14.2175 52.2972 14.0976C52.2975 13.9776 52.2206 13.8694 52.1027 13.8236Z" fill="#FED402"/>
<path d="M9.53919 35.805C9.41145 35.805 9.2966 35.7296 9.24781 35.6144C8.58839 34.0579 8.10232 33.5826 6.51024 32.9376C6.39246 32.8899 6.31543 32.7773 6.31543 32.6525C6.31543 32.5276 6.39259 32.415 6.51024 32.3672C8.10232 31.7224 8.58839 31.2471 9.24781 29.6905C9.29673 29.5751 9.41145 29.5 9.53919 29.5C9.66719 29.5 9.78216 29.5753 9.83096 29.6905C10.4902 31.2471 10.9766 31.7224 12.5684 32.3672C12.6863 32.415 12.7631 32.5276 12.7631 32.6525C12.7631 32.7774 12.6862 32.8899 12.5684 32.9376C10.9766 33.5826 10.4902 34.0579 9.83096 35.6144C9.78216 35.7298 9.66719 35.805 9.53919 35.805Z" fill="#FEDF30"/>
<path d="M12.5685 32.3672C11.9302 32.1087 11.4714 31.8765 11.1062 31.5917C9.58472 32.2155 9.09291 32.6965 8.45508 34.1849C8.74608 34.5419 8.98356 34.9905 9.24786 35.6144C9.29679 35.7296 9.4115 35.805 9.53925 35.805C9.66725 35.805 9.78222 35.7296 9.83101 35.6144C10.4903 34.0579 10.9766 33.5826 12.5685 32.9376C12.6864 32.8899 12.7631 32.7772 12.7631 32.6525C12.7631 32.5277 12.6862 32.415 12.5685 32.3672Z" fill="#FED402"/>
</svg>
