<svg width="66" height="65" viewBox="0 0 66 65" fill="none" xmlns="http://www.w3.org/2000/svg">
<path d="M45.7643 61.3041L45.6526 61.3122C45.0839 61.3539 44.5062 61.375 43.9351 61.375C31.6917 61.375 21.731 51.8423 21.731 40.125C21.731 28.4077 31.6917 18.875 43.9351 18.875C48.5291 18.875 52.937 20.2061 56.6825 22.7245C60.3445 25.1868 63.1165 28.5961 64.6987 32.584L64.7459 32.7029L64.8237 32.6731C64.4337 16.0838 50.2609 2.75 32.833 2.75C15.1599 2.75 0.833008 16.4613 0.833008 33.375C0.833008 50.2887 15.1599 64 32.833 64C37.4431 64 41.8245 63.0654 45.7843 61.386L45.7643 61.3041Z" fill="#FEE97D"/>
<path d="M21.7307 40.125C21.7307 28.4077 31.6915 18.875 43.9348 18.875C44.8119 18.875 45.682 18.9239 46.5421 19.0199C45.3168 8.32312 35.8463 0 24.343 0C12.0078 0 2.0083 9.56987 2.0083 21.375C2.0083 32.3848 10.7064 41.449 21.8846 42.6205C21.784 41.8018 21.7307 40.9692 21.7307 40.125Z" fill="#01D0FB"/>
<path d="M62.3721 21.5806C59.0986 14.0802 52.7975 8.09348 44.9302 5.01648C46.749 13.3511 53.6394 19.9027 62.3721 21.5806Z" fill="#FEDF30"/>
<path d="M2.4585 43.0329C5.71388 52.4146 13.5812 59.7814 23.4889 62.672C22.6141 52.0516 13.6287 43.615 2.4585 43.0329Z" fill="#FEDF30"/>
<path d="M21.7307 40.125C21.7307 39.1382 21.803 38.1673 21.9397 37.216C21.1891 37.107 20.4564 36.9612 19.7504 36.7791C19.4099 36.6912 19.0584 36.8753 18.9548 37.198L18.3796 38.9915C18.2716 39.3281 18.4746 39.6852 18.8296 39.778C19.7155 40.0096 20.6348 40.1923 21.5757 40.3242C21.6294 40.3317 21.6819 40.3308 21.7335 40.3261C21.7327 40.259 21.7307 40.1922 21.7307 40.125Z" fill="white"/>
<path d="M13.7444 37.7187C12.9209 37.2461 12.1373 36.7157 11.4039 36.1342C11.1195 35.9087 11.0893 35.501 11.3351 35.2371L12.6398 33.8371C12.8741 33.5857 13.2725 33.5595 13.5446 33.7731C14.1159 34.2216 14.724 34.6331 15.3619 35.003C15.6632 35.1776 15.7695 35.5464 15.5992 35.8415L14.6512 37.4834C14.4728 37.7926 14.061 37.9004 13.7444 37.7187Z" fill="#C8EFFE"/>
<path d="M7.70131 32.1727C7.18056 31.4152 6.71479 30.6156 6.31029 29.7839C6.1546 29.4639 6.30898 29.0835 6.64844 28.9455L8.45233 28.212C8.77677 28.08 9.14967 28.2196 9.29974 28.5249C9.61974 29.1756 9.98428 29.802 10.3892 30.3966C10.5814 30.6791 10.5103 31.0555 10.223 31.2507L8.62487 32.3369C8.32394 32.5412 7.90415 32.4677 7.70131 32.1727Z" fill="white"/>
<path d="M4.6826 24.7357C4.5273 23.8467 4.43365 22.9441 4.4027 22.0395C4.39068 21.6872 4.68756 21.3957 5.05576 21.3954L7.01612 21.3934C7.36851 21.393 7.65572 21.6602 7.66852 21.9972C7.69595 22.7231 7.77092 23.4469 7.89292 24.1604C7.94973 24.4931 7.72338 24.8091 7.37791 24.8754L5.45582 25.2439C5.09468 25.3131 4.74333 25.0834 4.6826 24.7357Z" fill="#C8EFFE"/>
<path d="M7.3704 17.9108L5.44739 17.5463C5.08599 17.4778 4.85363 17.1364 4.93683 16.7929C5.15195 15.9051 5.42976 15.0346 5.767 14.1926C5.89892 13.8631 6.29154 13.7051 6.63126 13.8424L8.43737 14.5723C8.76155 14.7033 8.91711 15.0558 8.79237 15.3706C8.5271 16.041 8.30623 16.7333 8.13226 17.4393C8.05154 17.7674 7.71587 17.9763 7.3704 17.9108Z" fill="white"/>
<path d="M40.6119 17.4096C40.4272 16.7137 40.1932 16.0291 39.9123 15.3632C39.7807 15.0511 39.928 14.6956 40.2489 14.5579L42.0377 13.79C42.3741 13.6455 42.7705 13.7955 42.91 14.1222C43.2693 14.9644 43.5661 15.8322 43.7964 16.7147C43.8857 17.0571 43.6587 17.4024 43.2979 17.4762L41.3808 17.8687C41.037 17.9391 40.6985 17.7359 40.6119 17.4096Z" fill="white"/>
<path d="M37.521 11.4266C37.0552 10.8626 36.5493 10.3274 36.009 9.82723C35.7561 9.59311 35.7401 9.21086 35.975 8.96024L37.2843 7.56374C37.5305 7.30111 37.9563 7.28424 38.2222 7.52849C38.9073 8.15774 39.5465 8.83399 40.1319 9.54874C40.3593 9.82649 40.2992 10.2301 40.0015 10.4384L38.4189 11.5455C38.135 11.7442 37.7391 11.6907 37.521 11.4266Z" fill="#C8EFFE"/>
<path d="M10.1993 11.5308L8.59841 10.4484C8.29683 10.2445 8.23021 9.84089 8.45395 9.55964C9.03531 8.82902 9.67374 8.14202 10.361 7.50765C10.6269 7.26227 11.0537 7.2789 11.3003 7.54215L12.6086 8.93902C12.8436 9.1899 12.8263 9.57165 12.5742 9.80665C12.0442 10.3006 11.5496 10.8329 11.0961 11.3974C10.8814 11.6646 10.4869 11.7253 10.1993 11.5308Z" fill="#C8EFFE"/>
<path d="M15.563 6.9276L14.6105 5.28773C14.4313 4.9791 14.5534 4.58823 14.8819 4.42748C15.7165 4.01935 16.5928 3.66335 17.4995 3.3641C17.8478 3.24923 18.2267 3.4346 18.3356 3.77148L18.915 5.56373C19.0191 5.88573 18.8369 6.2271 18.5044 6.3381C17.7858 6.57798 17.0914 6.85973 16.4297 7.17998C16.116 7.33185 15.7338 7.22173 15.563 6.9276Z" fill="white"/>
<path d="M32.1539 7.15413C31.4892 6.81913 30.8007 6.52688 30.0962 6.28075C29.7659 6.16538 29.5887 5.8225 29.6967 5.50225L30.2984 3.71663C30.4116 3.38075 30.7934 3.19938 31.1403 3.31913C32.0339 3.62738 32.9062 3.99763 33.746 4.425C34.0717 4.59075 34.1876 4.98313 34.0036 5.289L33.0252 6.91488C32.8495 7.20638 32.4651 7.311 32.1539 7.15413Z" fill="white"/>
<path d="M22.5065 4.83838L22.2723 2.97638C22.2285 2.62763 22.4928 2.3115 22.8583 2.27875C23.3264 2.23688 23.8019 2.20663 24.2788 2.18863C24.3002 2.18788 24.3218 2.18738 24.3432 2.18738C24.8045 2.18738 25.2683 2.20263 25.7289 2.23263C26.0965 2.25663 26.3695 2.5695 26.332 2.9205L26.133 4.78638C26.0972 5.1225 25.7889 5.36763 25.4367 5.346C25.0838 5.32438 24.7288 5.31313 24.3752 5.31238C23.986 5.32763 23.5984 5.352 23.2168 5.38525C22.8638 5.41613 22.5488 5.17513 22.5065 4.83838Z" fill="#C8EFFE"/>
<path d="M38.5895 19.499C37.6333 12.7861 31.6201 7.61298 24.3433 7.61298C16.4015 7.61298 9.96338 13.7745 9.96338 21.375C9.96338 28.3391 15.3688 34.094 22.383 35.0091C24.3571 27.3944 30.6329 21.3882 38.5895 19.499Z" fill="white"/>
<path d="M33.2497 21.375C33.2497 21.4182 33.2471 21.4609 33.2467 21.5041C34.9098 20.6264 36.7023 19.9471 38.5894 19.499C37.6331 12.7861 31.6198 7.61298 24.343 7.61298C23.4072 7.61298 22.4925 7.6996 21.6064 7.86298C28.2392 9.08623 33.2497 14.6701 33.2497 21.375Z" fill="#F9F7F8"/>
<path d="M23.8264 31.1193C21.499 31.009 19.3147 30.1545 17.5757 28.6738C17.3194 28.4556 16.9281 28.4711 16.6856 28.7032L16.2228 29.1461C15.9602 29.3975 15.9658 29.811 16.2424 30.0482C18.1488 31.6831 20.5086 32.6822 23.0386 32.939C23.2724 32.3185 23.5357 31.7116 23.8264 31.1193Z" fill="#01C0FA"/>
<path d="M32.0006 14.0467C31.7581 14.2789 31.3668 14.2944 31.1105 14.0761C29.2434 12.4864 26.8631 11.6175 24.3433 11.6175C21.8236 11.6175 19.4433 12.4864 17.5762 14.0761C17.3199 14.2944 16.9286 14.2789 16.6861 14.0467L16.2233 13.6039C15.9607 13.3525 15.9663 12.939 16.2429 12.7017C18.4736 10.7886 21.3245 9.74249 24.3433 9.74249C27.3622 9.74249 30.2131 10.7886 32.4438 12.7017C32.7204 12.939 32.726 13.3525 32.4634 13.6039L32.0006 14.0467Z" fill="#01C0FA"/>
<path d="M16.7891 26.2741H14.453C14.0924 26.2741 13.7999 25.9942 13.7999 25.6491V24.6491C13.7999 24.304 14.0924 24.0241 14.453 24.0241H16.823C17.4409 24.0241 17.9814 23.5789 18.0226 22.9888C18.068 22.3415 17.5306 21.8011 16.8638 21.8011H14.4529C14.0922 21.8011 13.7998 21.5212 13.7998 21.1761V17C13.7998 16.6549 14.0922 16.375 14.4529 16.375H19.0854C19.446 16.375 19.7385 16.6549 19.7385 17V18C19.7385 18.3451 19.446 18.625 19.0854 18.625H16.1508V19.551H16.8638C18.836 19.551 20.4337 21.1146 20.3747 23.0144C20.318 24.8428 18.7004 26.2741 16.7891 26.2741Z" fill="#01C0FA"/>
<path d="M24.7367 26.2741H23.7334C22.2095 26.2741 20.9697 25.0876 20.9697 23.6292V19.0199C20.9697 17.5615 22.2095 16.375 23.7334 16.375H24.7367C26.2606 16.375 27.5003 17.5615 27.5003 19.0199V23.6292C27.5003 25.0876 26.2606 26.2741 24.7367 26.2741ZM23.7334 18.625C23.5058 18.625 23.3207 18.8021 23.3207 19.0199V23.6292C23.3207 23.847 23.5058 24.0241 23.7334 24.0241H24.7367C24.9642 24.0241 25.1493 23.847 25.1493 23.6292V19.0199C25.1493 18.8021 24.9642 18.625 24.7367 18.625H23.7334Z" fill="#01C0FA"/>
<path d="M30.707 23.0681V19.0199C30.707 18.8021 30.8921 18.625 31.1196 18.625H32.1229C32.3505 18.625 32.5355 18.8021 32.5355 19.0199V21.896C33.2914 21.4615 34.0761 21.0686 34.8866 20.7211V19.0199C34.8866 17.5615 33.6468 16.375 32.1229 16.375H31.1196C29.5957 16.375 28.356 17.5615 28.356 19.0199V23.6292C28.356 24.0309 28.4527 24.4104 28.6208 24.7516C29.279 24.1509 29.9759 23.5887 30.707 23.0681Z" fill="#01C0FA"/>
<path d="M64.821 32.5396C61.6231 24.4794 53.479 18.75 43.9353 18.75C31.6001 18.75 21.6006 28.3199 21.6006 40.125C21.6006 51.9301 31.6001 61.5 43.9353 61.5C44.5165 61.5 45.0926 61.4786 45.6628 61.4369C56.9482 56.7045 64.8332 45.9219 64.8332 33.375C64.8332 33.0956 64.8288 32.8172 64.821 32.5396Z" fill="#0ED290"/>
<path d="M43.9351 53.887C51.8769 53.887 58.3149 47.7255 58.3149 40.125C58.3149 32.5244 51.8769 26.363 43.9351 26.363C35.9933 26.363 29.5552 32.5244 29.5552 40.125C29.5552 47.7255 35.9933 53.887 43.9351 53.887Z" fill="white"/>
<path d="M43.9348 26.363C42.999 26.363 42.0843 26.4496 41.1982 26.613C47.831 27.8362 52.8415 33.4201 52.8415 40.125C52.8415 46.8298 47.8311 52.4137 41.1982 53.637C42.0843 53.8004 42.999 53.887 43.9348 53.887C51.8766 53.887 58.3147 47.7255 58.3147 40.125C58.3147 32.5245 51.8766 26.363 43.9348 26.363Z" fill="#F9F7F8"/>
<path d="M29.5552 40.125C29.5552 43.2327 30.6321 46.0996 32.4475 48.4034C34.2628 46.0996 35.3397 43.2329 35.3397 40.125C35.3397 37.0171 34.263 34.1504 32.4475 31.8466C30.6321 34.1504 29.5552 37.0172 29.5552 40.125Z" fill="#05E39C"/>
<path d="M58.3148 40.125C58.3148 43.2327 57.2379 46.0996 55.4225 48.4034C53.6072 46.0996 52.5303 43.2329 52.5303 40.125C52.5303 37.0171 53.607 34.1504 55.4225 31.8466C57.2379 34.1504 58.3148 37.0172 58.3148 40.125Z" fill="#05E39C"/>
<path d="M43.9353 54.512C35.6461 54.512 28.9023 48.058 28.9023 40.125C28.9023 32.192 35.6461 25.738 43.9353 25.738C52.2245 25.738 58.9682 32.192 58.9682 40.125C58.9682 48.058 52.2245 54.512 43.9353 54.512ZM43.9353 26.988C36.3663 26.988 30.2085 32.8812 30.2085 40.125C30.2085 47.3687 36.3663 53.262 43.9353 53.262C51.5043 53.262 57.6621 47.3687 57.6621 40.125C57.6621 32.8812 51.5043 26.988 43.9353 26.988Z" fill="#00C285"/>
<path d="M43.9351 51.7575C40.9163 51.7575 38.0654 50.7113 35.8347 48.7982C35.5581 48.561 35.5524 48.1475 35.8151 47.8961L36.2779 47.4532C36.5204 47.2211 36.9117 47.2056 37.168 47.4238C39.0351 49.0136 41.4154 49.8825 43.9351 49.8825C46.4549 49.8825 48.8352 49.0136 50.7023 47.4238C50.9586 47.2056 51.3499 47.2211 51.5924 47.4532L52.0552 47.8961C52.3178 48.1475 52.3122 48.561 52.0356 48.7982C49.8049 50.7113 46.954 51.7575 43.9351 51.7575Z" fill="#00C285"/>
<path d="M51.5924 32.7967C51.3499 33.0289 50.9586 33.0444 50.7023 32.8261C48.8352 31.2364 46.4549 30.3675 43.9351 30.3675C41.4154 30.3675 39.0351 31.2364 37.168 32.8261C36.9117 33.0444 36.5204 33.0289 36.2779 32.7967L35.8151 32.3539C35.5524 32.1025 35.5581 31.689 35.8347 31.4517C38.0654 29.5386 40.9163 28.4925 43.9351 28.4925C46.954 28.4925 49.8049 29.5386 52.0356 31.4517C52.3122 31.689 52.3178 32.1025 52.0552 32.3539L51.5924 32.7967Z" fill="#00C285"/>
<path d="M40.0743 45.0241H37.7381C37.3775 45.0241 37.0851 44.7442 37.0851 44.3991V43.3991C37.0851 43.054 37.3775 42.7741 37.7381 42.7741H40.1081C40.726 42.7741 41.2665 42.3289 41.3078 41.7388C41.3531 41.0915 40.8158 40.5511 40.149 40.5511H37.738C37.3774 40.5511 37.085 40.2712 37.085 39.9261V35.75C37.085 35.4049 37.3774 35.125 37.738 35.125H42.3706C42.7312 35.125 43.0236 35.4049 43.0236 35.75V36.75C43.0236 37.0951 42.7312 37.375 42.3706 37.375H39.436V38.301H40.149C42.1211 38.301 43.7189 39.8646 43.6598 41.7644C43.6032 43.5927 41.9855 45.0241 40.0743 45.0241Z" fill="#00C285"/>
<path d="M48.0214 45.0241H47.018C45.4942 45.0241 44.2544 43.8376 44.2544 42.3792V37.7699C44.2544 36.3115 45.4942 35.125 47.018 35.125H48.0214C49.5452 35.125 50.785 36.3115 50.785 37.7699V42.3792C50.7851 43.8376 49.5452 45.0241 48.0214 45.0241ZM47.018 37.375C46.7905 37.375 46.6054 37.5521 46.6054 37.7699V42.3792C46.6054 42.597 46.7905 42.7741 47.018 42.7741H48.0214C48.2489 42.7741 48.434 42.597 48.434 42.3792V37.7699C48.434 37.5521 48.2489 37.375 48.0214 37.375H47.018Z" fill="#00C285"/>
<path d="M33.3159 27.0564C33.5934 26.8493 33.6515 26.4704 33.4453 26.1974L32.2968 24.6768C32.0812 24.3912 31.6603 24.3312 31.3691 24.5467C30.2278 25.3914 29.1817 26.3483 28.2477 27.4017C28.0095 27.6703 28.0531 28.0754 28.3414 28.2946L29.8764 29.4616C30.152 29.6711 30.5503 29.6328 30.779 29.3767C31.5414 28.5236 32.3912 27.7462 33.3159 27.0564Z" fill="#00C285"/>
<path d="M28.2397 47.1011C28.0909 46.7958 27.7183 46.6568 27.3941 46.7879L25.5882 47.5182C25.249 47.6553 25.0934 48.0346 25.2478 48.3544C25.8521 49.6069 26.5937 50.7967 27.4607 51.9046C27.6815 52.1866 28.1039 52.2361 28.3912 52.0157L29.9215 50.8428C30.1962 50.6323 30.2457 50.2522 30.0358 49.9818C29.3357 49.0804 28.7341 48.1153 28.2397 47.1011Z" fill="#6CF5C2"/>
<path d="M24.5147 35.9307L26.4273 36.3436C26.7705 36.4177 27.1116 36.2179 27.2015 35.8922C27.5008 34.8101 27.9152 33.7592 28.4387 32.7555C28.5958 32.4542 28.4776 32.0884 28.1687 31.9271L26.4477 31.0284C26.1244 30.8595 25.7174 30.979 25.5517 31.2937C24.9006 32.5304 24.3889 33.8279 24.0249 35.1652C23.9322 35.5062 24.1554 35.8531 24.5147 35.9307Z" fill="#6CF5C2"/>
<path d="M64.1084 36.2613C64.0363 35.9158 63.6771 35.6975 63.3187 35.7778L61.4097 36.206C61.0671 36.2827 60.8516 36.6051 60.9191 36.9355C61.1329 37.9815 61.2412 39.0518 61.2412 40.1255C61.2412 40.1765 61.2409 40.2276 61.2404 40.2787C61.2371 40.6147 61.5127 40.8928 61.8636 40.908L63.8221 40.9925C63.8265 40.9927 63.8307 40.9916 63.8351 40.9917C64.0705 40.1117 64.2642 39.216 64.4179 38.3072C64.3517 37.6195 64.2492 36.9361 64.1084 36.2613Z" fill="#6CF5C2"/>
<path d="M59.6 33.0881C59.75 33.3927 60.1233 33.5302 60.4468 33.3978L62.2497 32.6605C62.5884 32.522 62.7422 32.1422 62.5865 31.8228C61.9768 30.5727 61.23 29.3858 60.3584 28.2815C60.1365 28.0003 59.7138 27.9526 59.4274 28.174L57.9021 29.3528C57.6284 29.5645 57.5804 29.9447 57.7915 30.2142C58.4954 31.1131 59.1013 32.0758 59.6 33.0881Z" fill="#00C285"/>
<path d="M48.7502 23.5778L49.2768 21.7704C49.3757 21.431 49.1626 21.0784 48.8048 20.995C47.4331 20.6753 46.0263 20.492 44.6071 20.448C44.2391 20.4366 43.9351 20.7213 43.9351 21.0735V22.9498C43.9351 23.2868 44.2143 23.5613 44.5662 23.5734C45.7163 23.6131 46.8558 23.7615 47.9677 24.0163C48.31 24.0948 48.6558 23.9021 48.7502 23.5778Z" fill="#00C285"/>
<path d="M51.931 25.4393C52.9678 25.9586 53.9484 26.5781 54.858 27.2886C55.1307 27.5016 55.5296 27.4715 55.7619 27.2183L57.0555 25.8085C57.2984 25.5437 57.266 25.1376 56.9815 24.9138C55.8645 24.0348 54.6562 23.2716 53.3762 22.6363C53.0493 22.4741 52.6465 22.6055 52.4878 22.9235L51.6427 24.6166C51.4912 24.9203 51.6192 25.2831 51.931 25.4393Z" fill="#6CF5C2"/>
<path d="M26.9371 43.2482C26.7323 42.2237 26.6287 41.176 26.6287 40.1255C26.6287 40.0511 26.6292 39.9766 26.6303 39.902C26.635 39.5667 26.3595 39.289 26.0096 39.2726L24.0513 39.1805C23.6848 39.1632 23.3726 39.4382 23.3663 39.7893C23.3643 39.9016 23.3633 40.0137 23.3633 40.1255C23.3633 41.3983 23.4914 42.6686 23.7449 43.9105C23.8155 44.2561 24.1737 44.4757 24.5324 44.3968L26.4432 43.9763C26.7864 43.9007 27.0032 43.5791 26.9371 43.2482Z" fill="#00C285"/>
<path d="M35.8764 54.7795C34.8418 54.2562 33.8639 53.6328 32.9573 52.9189C32.6855 52.7049 32.2865 52.7334 32.0531 52.9857L30.7535 54.3905C30.5094 54.6544 30.5401 55.0605 30.8235 55.2854C31.9367 56.1687 33.1416 56.9367 34.4189 57.5769C34.745 57.7404 35.1485 57.6107 35.3086 57.2933L36.161 55.6035C36.3139 55.3002 36.1875 54.9369 35.8764 54.7795Z" fill="#00C285"/>
<path d="M52.7078 57.2249L51.841 55.5418C51.6855 55.2398 51.3085 55.1116 50.9875 55.2492C49.9187 55.7076 48.8046 56.0599 47.6621 56.3009C47.3185 56.3734 47.0956 56.6912 47.1586 57.0225L47.5099 58.8685C47.5759 59.2153 47.9288 59.4432 48.2888 59.3687C49.1782 59.1844 50.0533 58.9434 50.9085 58.6477C51.5401 58.2332 52.1553 57.7975 52.7531 57.3419C52.7421 57.3023 52.7274 57.2631 52.7078 57.2249Z" fill="#00C285"/>
<path d="M61.4591 43.8382C61.1156 43.7654 60.7753 43.9667 60.6868 44.2925C60.3922 45.3759 59.9824 46.4284 59.4632 47.4342C59.3074 47.736 59.4271 48.1014 59.7367 48.2614L60.5534 48.6838C61.4292 47.2345 62.1832 45.7098 62.8048 44.1229L61.4591 43.8382Z" fill="#00C285"/>
<path d="M58.0393 50.734C57.7628 50.5255 57.3648 50.5655 57.1372 50.8224C56.3786 51.6785 55.5321 52.4591 54.6102 53.1526C54.3335 53.3607 54.277 53.74 54.4844 54.0121L55.3437 55.14C56.5972 53.9525 57.7481 52.6665 58.7837 51.2952L58.0393 50.734Z" fill="#6CF5C2"/>
<path d="M43.3369 56.6782C42.1515 56.6393 40.9777 56.4852 39.8332 56.2181C39.4914 56.1383 39.145 56.3296 39.0492 56.6536L38.5147 58.4587C38.4143 58.7981 38.6264 59.1515 38.9841 59.2363C40.4263 59.5786 41.9076 59.7697 43.4023 59.8065C43.7819 59.8158 44.0887 59.5112 44.069 59.1482L43.9668 57.2692C43.9492 56.9453 43.6756 56.6892 43.3369 56.6782Z" fill="#6CF5C2"/>
<path d="M40.784 23.2155L40.4407 21.3682C40.3762 21.0212 40.0244 20.7918 39.6641 20.8649C38.251 21.1517 36.8735 21.5813 35.5538 22.1467C35.2176 22.2907 35.0744 22.6743 35.2358 22.9912L36.0954 24.6775C36.2497 24.9802 36.6261 25.1099 36.9477 24.9734C38.0184 24.5193 39.1338 24.1714 40.2774 23.935C40.6213 23.8639 40.8456 23.547 40.784 23.2155Z" fill="#6CF5C2"/>
</svg>
