<svg width="42" height="42" viewBox="0 0 42 42" fill="none" xmlns="http://www.w3.org/2000/svg">
<path d="M21 42V0C20.7375 0 20.475 0 20.2125 0.2625L3.15 13.3875C2.8875 13.65 2.625 13.9125 2.625 14.4375V27.5625C2.625 28.0875 2.8875 28.6125 3.4125 28.875C3.9375 29.1375 4.4625 29.1375 4.725 28.875L13.125 22.3125V40.6875C13.125 41.475 13.65 42 14.4375 42H21Z" fill="#03E6B1"/>
<path d="M39.375 27.5625V14.4375C39.375 13.9125 39.1125 13.65 38.85 13.3875L21.7875 0.2625C21.525 0 21.2625 0 21 0V42H27.5625C28.35 42 28.875 41.475 28.875 40.6875V22.3125L37.275 28.6125C37.5375 28.875 38.0625 28.875 38.5875 28.6125C39.1125 28.6125 39.375 28.0875 39.375 27.5625Z" fill="#05C190"/>
</svg>
